#define text_width 8
#define text_height 1692
static char text_bits[] = {
  0x00, 0x00, 0x00, 0x00, 0x00, 0x10, 0x10, 0x10, 0x10, 0x10, 0x10, 0x10, 
  0x00, 0x10, 0x00, 0x00, 0x00, 0x00, 0x00, 0x00, 0x00, 0x00, 0x00, 0x14, 
  0x14, 0x14, 0x14, 0x00, 0x00, 0x00, 0x00, 0x00, 0x00, 0x00, 0x00, 0x00, 
  0x00, 0x00, 0x00, 0x00, 0x00, 0x10, 0x98, 0xFE, 0x88, 0xCC, 0xC4, 0xFF, 
  0x46, 0x62, 0x00, 0x00, 0x00, 0x00, 0x00, 0x00, 0x00, 0x00, 0x18, 0x38, 
  0x1E, 0x1A, 0x1E, 0x7C, 0x58, 0x58, 0x7A, 0x3E, 0x18, 0x08, 0x00, 0x00, 
  0x00, 0x00, 0x00, 0x00, 0x00, 0x4E, 0x4A, 0x2E, 0x20, 0x10, 0xD0, 0x48, 
  0x48, 0xC4, 0x00, 0x00, 0x00, 0x00, 0x00, 0x00, 0x00, 0x00, 0x00, 0x38, 
  0x28, 0x18, 0x1C, 0x56, 0x72, 0x63, 0x72, 0x5E, 0x00, 0x00, 0x00, 0x00, 
  0x00, 0x00, 0x00, 0x00, 0x00, 0x10, 0x10, 0x10, 0x00, 0x00, 0x00, 0x00, 
  0x00, 0x00, 0x00, 0x00, 0x00, 0x00, 0x00, 0x00, 0x00, 0x00, 0x00, 0x20, 
  0x10, 0x18, 0x08, 0x08, 0x08, 0x08, 0x08, 0x08, 0x18, 0x30, 0x00, 0x00, 
  0x00, 0x00, 0x00, 0x00, 0x00, 0x08, 0x18, 0x10, 0x30, 0x20, 0x20, 0x20, 
  0x20, 0x30, 0x10, 0x18, 0x00, 0x00, 0x00, 0x00, 0x00, 0x00, 0x00, 0x08, 
  0x7E, 0x1C, 0x3C, 0x00, 0x00, 0x00, 0x00, 0x00, 0x00, 0x00, 0x00, 0x00, 
  0x00, 0x00, 0x00, 0x00, 0x00, 0x00, 0x00, 0x00, 0x08, 0x08, 0x3E, 0x08, 
  0x00, 0x00, 0x00, 0x00, 0x00, 0x00, 0x00, 0x00, 0x00, 0x00, 0x00, 0x00, 
  0x00, 0x00, 0x00, 0x00, 0x00, 0x00, 0x00, 0x00, 0x10, 0x08, 0x00, 0x00, 
  0x00, 0x00, 0x00, 0x00, 0x00, 0x00, 0x00, 0x00, 0x00, 0x00, 0x1C, 0x00, 
  0x00, 0x00, 0x00, 0x00, 0x00, 0x00, 0x00, 0x00, 0x00, 0x00, 0x00, 0x00, 
  0x00, 0x00, 0x00, 0x00, 0x00, 0x00, 0x00, 0x10, 0x00, 0x00, 0x00, 0x00, 
  0x00, 0x00, 0x00, 0x00, 0x00, 0x40, 0x20, 0x20, 0x10, 0x10, 0x08, 0x0C, 
  0x04, 0x04, 0x00, 0x00, 0x00, 0x00, 0x00, 0x00, 0x00, 0x00, 0x00, 0x1C, 
  0x26, 0x62, 0x43, 0x43, 0x43, 0x62, 0x26, 0x1C, 0x00, 0x00, 0x00, 0x00, 
  0x00, 0x00, 0x00, 0x00, 0x00, 0x18, 0x1C, 0x18, 0x18, 0x18, 0x18, 0x08, 
  0x18, 0x3C, 0x00, 0x00, 0x00, 0x00, 0x00, 0x00, 0x00, 0x00, 0x00, 0x3C, 
  0x26, 0x20, 0x30, 0x18, 0x06, 0x02, 0x3E, 0x00, 0x00, 0x00, 0x00, 0x00, 
  0x00, 0x00, 0x00, 0x00, 0x00, 0x1C, 0x22, 0x20, 0x38, 0x38, 0x20, 0x20, 
  0x22, 0x1C, 0x00, 0x00, 0x00, 0x00, 0x00, 0x00, 0x00, 0x00, 0x00, 0x30, 
  0x38, 0x3C, 0x34, 0x36, 0x7F, 0x30, 0x30, 0x20, 0x00, 0x00, 0x00, 0x00, 
  0x00, 0x00, 0x00, 0x00, 0x00, 0x3E, 0x02, 0x02, 0x3E, 0x66, 0x60, 0x60, 
  0x32, 0x1E, 0x00, 0x00, 0x00, 0x00, 0x00, 0x00, 0x00, 0x00, 0x00, 0x18, 
  0x0C, 0x04, 0x1E, 0x26, 0x62, 0x22, 0x26, 0x1C, 0x00, 0x00, 0x00, 0x00, 
  0x00, 0x00, 0x00, 0x00, 0x00, 0x7F, 0x20, 0x30, 0x10, 0x18, 0x08, 0x0C, 
  0x04, 0x04, 0x00, 0x00, 0x00, 0x00, 0x00, 0x00, 0x00, 0x00, 0x00, 0x1C, 
  0x26, 0x22, 0x3E, 0x3C, 0x22, 0x62, 0x22, 0x3C, 0x00, 0x00, 0x00, 0x00, 
  0x00, 0x00, 0x00, 0x00, 0x00, 0x1C, 0x22, 0x62, 0x62, 0x7C, 0x20, 0x30, 
  0x1C, 0x06, 0x00, 0x00, 0x00, 0x00, 0x00, 0x00, 0x00, 0x00, 0x00, 0x00, 
  0x00, 0x00, 0x08, 0x00, 0x00, 0x08, 0x08, 0x00, 0x00, 0x00, 0x00, 0x00, 
  0x00, 0x00, 0x00, 0x00, 0x00, 0x00, 0x00, 0x00, 0x08, 0x00, 0x00, 0x00, 
  0x00, 0x08, 0x0C, 0x00, 0x00, 0x00, 0x00, 0x00, 0x00, 0x00, 0x00, 0x00, 
  0x00, 0x00, 0x30, 0x18, 0x0C, 0x18, 0x10, 0x00, 0x00, 0x00, 0x00, 0x00, 
  0x00, 0x00, 0x00, 0x00, 0x00, 0x00, 0x00, 0x00, 0x3C, 0x00, 0x00, 0x3C, 
  0x00, 0x00, 0x00, 0x00, 0x00, 0x00, 0x00, 0x00, 0x00, 0x00, 0x00, 0x00, 
  0x00, 0x00, 0x08, 0x30, 0x30, 0x18, 0x0C, 0x00, 0x00, 0x00, 0x00, 0x00, 
  0x00, 0x00, 0x00, 0x00, 0x00, 0x1C, 0x36, 0x60, 0x60, 0x30, 0x18, 0x08, 
  0x00, 0x04, 0x00, 0x00, 0x00, 0x00, 0x00, 0x00, 0x00, 0x00, 0x00, 0x7C, 
  0xC6, 0x93, 0x19, 0x25, 0x35, 0xFD, 0x03, 0x06, 0x7C, 0x00, 0x00, 0x00, 
  0x00, 0x00, 0x00, 0x00, 0x00, 0x20, 0x30, 0x70, 0x78, 0x6C, 0x7C, 0x46, 
  0x42, 0x02, 0x00, 0x00, 0x00, 0x00, 0x00, 0x00, 0x00, 0x00, 0x00, 0x1E, 
  0x36, 0x66, 0x26, 0x3E, 0x7E, 0x42, 0x72, 0x1E, 0x00, 0x00, 0x00, 0x00, 
  0x00, 0x00, 0x00, 0x00, 0x00, 0x78, 0x4C, 0x04, 0x06, 0x02, 0x03, 0x02, 
  0x76, 0x1C, 0x00, 0x00, 0x00, 0x00, 0x00, 0x00, 0x00, 0x00, 0x00, 0x06, 
  0x1E, 0x62, 0x42, 0x02, 0x02, 0x42, 0x66, 0x3E, 0x00, 0x00, 0x00, 0x00, 
  0x00, 0x00, 0x00, 0x00, 0x00, 0x7E, 0x02, 0x02, 0x02, 0x3E, 0x02, 0x02, 
  0x02, 0x7E, 0x00, 0x00, 0x00, 0x00, 0x00, 0x00, 0x00, 0x00, 0x00, 0x7E, 
  0x02, 0x02, 0x3E, 0x06, 0x02, 0x02, 0x02, 0x02, 0x00, 0x00, 0x00, 0x00, 
  0x00, 0x00, 0x00, 0x00, 0x00, 0x78, 0x4C, 0x06, 0x02, 0x7A, 0x5B, 0x43, 
  0x32, 0x1E, 0x00, 0x00, 0x00, 0x00, 0x00, 0x00, 0x00, 0x00, 0x00, 0x82, 
  0x82, 0x82, 0x82, 0xFE, 0x9E, 0x82, 0x82, 0x82, 0x00, 0x00, 0x00, 0x00, 
  0x00, 0x00, 0x00, 0x00, 0x00, 0x7E, 0x18, 0x18, 0x18, 0x18, 0x18, 0x18, 
  0x18, 0x7C, 0x00, 0x00, 0x00, 0x00, 0x00, 0x00, 0x00, 0x00, 0x00, 0x7C, 
  0x30, 0x30, 0x30, 0x30, 0x30, 0x12, 0x12, 0x1C, 0x00, 0x00, 0x00, 0x00, 
  0x00, 0x00, 0x00, 0x00, 0x00, 0x46, 0x26, 0x36, 0x1E, 0x0E, 0x0E, 0x1E, 
  0x36, 0x66, 0x00, 0x00, 0x00, 0x00, 0x00, 0x00, 0x00, 0x00, 0x00, 0x04, 
  0x04, 0x04, 0x04, 0x04, 0x04, 0x04, 0x64, 0x3C, 0x00, 0x00, 0x00, 0x00, 
  0x00, 0x00, 0x00, 0x00, 0x00, 0x8C, 0x8C, 0xCC, 0xDC, 0x5E, 0x76, 0x72, 
  0x32, 0x32, 0x00, 0x00, 0x00, 0x00, 0x00, 0x00, 0x00, 0x00, 0x00, 0x82, 
  0x06, 0x0E, 0x0A, 0x12, 0x22, 0x62, 0xC2, 0x82, 0x00, 0x00, 0x00, 0x00, 
  0x00, 0x00, 0x00, 0x00, 0x00, 0xF8, 0x8C, 0x06, 0x02, 0x02, 0x82, 0x82, 
  0xC6, 0x78, 0x00, 0x00, 0x00, 0x00, 0x00, 0x00, 0x00, 0x00, 0x00, 0x3C, 
  0x64, 0x44, 0x64, 0x3C, 0x04, 0x04, 0x04, 0x04, 0x00, 0x00, 0x00, 0x00, 
  0x00, 0x00, 0x00, 0x00, 0x00, 0xF8, 0x8C, 0x06, 0x02, 0x03, 0x03, 0x22, 
  0xE6, 0xF8, 0x00, 0x00, 0x00, 0x00, 0x00, 0x00, 0x00, 0x00, 0x00, 0x0E, 
  0x3E, 0x22, 0x62, 0x62, 0x3E, 0x1E, 0x72, 0x42, 0x00, 0x00, 0x00, 0x00, 
  0x00, 0x00, 0x00, 0x00, 0x00, 0x78, 0x0C, 0x04, 0x04, 0x7C, 0x40, 0x40, 
  0x62, 0x3C, 0x00, 0x00, 0x00, 0x00, 0x00, 0x00, 0x00, 0x00, 0x00, 0x7E, 
  0x78, 0x10, 0x10, 0x10, 0x10, 0x10, 0x10, 0x00, 0x00, 0x00, 0x00, 0x00, 
  0x00, 0x00, 0x00, 0x00, 0x00, 0x02, 0x02, 0x02, 0x02, 0x02, 0x02, 0x46, 
  0x44, 0x3C, 0x00, 0x00, 0x00, 0x00, 0x00, 0x00, 0x00, 0x00, 0x00, 0x42, 
  0x42, 0x46, 0x64, 0x24, 0x3C, 0x1C, 0x18, 0x18, 0x00, 0x00, 0x00, 0x00, 
  0x00, 0x00, 0x00, 0x00, 0x00, 0x21, 0x31, 0x73, 0x72, 0x5A, 0x5E, 0xCE, 
  0xCC, 0x84, 0x00, 0x00, 0x00, 0x00, 0x00, 0x00, 0x00, 0x00, 0x00, 0x02, 
  0x46, 0x6C, 0x38, 0x38, 0x38, 0x6C, 0x46, 0x03, 0x00, 0x00, 0x00, 0x00, 
  0x00, 0x00, 0x00, 0x00, 0x00, 0x41, 0x62, 0x26, 0x24, 0x3C, 0x18, 0x18, 
  0x08, 0x04, 0x00, 0x00, 0x00, 0x00, 0x00, 0x00, 0x00, 0x00, 0x00, 0x7E, 
  0x60, 0x30, 0x10, 0x08, 0x0C, 0x06, 0x02, 0x7F, 0x00, 0x00, 0x00, 0x00, 
  0x00, 0x00, 0x00, 0x00, 0x00, 0x38, 0x08, 0x08, 0x08, 0x08, 0x08, 0x08, 
  0x08, 0x08, 0x08, 0x38, 0x00, 0x00, 0x00, 0x00, 0x00, 0x00, 0x00, 0x04, 
  0x0C, 0x08, 0x18, 0x10, 0x30, 0x20, 0x20, 0x60, 0x00, 0x00, 0x00, 0x00, 
  0x00, 0x00, 0x00, 0x00, 0x00, 0x38, 0x20, 0x20, 0x20, 0x20, 0x20, 0x20, 
  0x20, 0x20, 0x20, 0x38, 0x00, 0x00, 0x00, 0x00, 0x00, 0x00, 0x00, 0x10, 
  0x38, 0x4C, 0x00, 0x00, 0x00, 0x00, 0x00, 0x00, 0x00, 0x00, 0x00, 0x00, 
  0x00, 0x00, 0x00, 0x00, 0x00, 0x00, 0x00, 0x00, 0x00, 0x00, 0x00, 0x00, 
  0x00, 0x00, 0x00, 0xFE, 0x00, 0x00, 0x00, 0x00, 0x00, 0x00, 0x00, 0x0C, 
  0x08, 0x00, 0x00, 0x00, 0x00, 0x00, 0x00, 0x00, 0x00, 0x00, 0x00, 0x00, 
  0x00, 0x00, 0x00, 0x00, 0x00, 0x00, 0x00, 0x00, 0x38, 0x24, 0x26, 0x26, 
  0x66, 0x7C, 0x00, 0x00, 0x00, 0x00, 0x00, 0x00, 0x00, 0x00, 0x00, 0x02, 
  0x02, 0x02, 0x1E, 0x26, 0x62, 0x62, 0x22, 0x1E, 0x00, 0x00, 0x00, 0x00, 
  0x00, 0x00, 0x00, 0x00, 0x00, 0x00, 0x00, 0x00, 0x38, 0x0C, 0x04, 0x04, 
  0x04, 0x38, 0x00, 0x00, 0x00, 0x00, 0x00, 0x00, 0x00, 0x00, 0x00, 0x20, 
  0x20, 0x20, 0x3C, 0x22, 0x22, 0x22, 0x22, 0x3C, 0x00, 0x00, 0x00, 0x00, 
  0x00, 0x00, 0x00, 0x00, 0x00, 0x00, 0x00, 0x00, 0x38, 0x64, 0x34, 0x0E, 
  0x44, 0x78, 0x00, 0x00, 0x00, 0x00, 0x00, 0x00, 0x00, 0x00, 0x00, 0x30, 
  0x18, 0x08, 0x3E, 0x08, 0x08, 0x08, 0x08, 0x08, 0x08, 0x00, 0x00, 0x00, 
  0x00, 0x00, 0x00, 0x00, 0x00, 0x00, 0x00, 0x00, 0x38, 0x44, 0x46, 0x66, 
  0x64, 0x7C, 0x20, 0x30, 0x1E, 0x00, 0x00, 0x00, 0x00, 0x00, 0x00, 0x04, 
  0x04, 0x04, 0x74, 0x4C, 0x4C, 0x44, 0x44, 0x44, 0x00, 0x00, 0x00, 0x00, 
  0x00, 0x00, 0x00, 0x00, 0x00, 0x18, 0x00, 0x00, 0x08, 0x08, 0x08, 0x08, 
  0x08, 0x08, 0x00, 0x00, 0x00, 0x00, 0x00, 0x00, 0x00, 0x00, 0x00, 0x10, 
  0x00, 0x00, 0x10, 0x30, 0x30, 0x30, 0x30, 0x20, 0x24, 0x3C, 0x18, 0x00, 
  0x00, 0x00, 0x00, 0x00, 0x00, 0x04, 0x04, 0x04, 0x44, 0x34, 0x1C, 0x3C, 
  0x64, 0x44, 0x00, 0x00, 0x00, 0x00, 0x00, 0x00, 0x00, 0x00, 0x00, 0x08, 
  0x08, 0x08, 0x08, 0x08, 0x08, 0x08, 0x08, 0x08, 0x00, 0x00, 0x00, 0x00, 
  0x00, 0x00, 0x00, 0x00, 0x00, 0x00, 0x00, 0x00, 0xFA, 0xB6, 0x92, 0x92, 
  0x92, 0x12, 0x00, 0x00, 0x00, 0x00, 0x00, 0x00, 0x00, 0x00, 0x00, 0x00, 
  0x00, 0x00, 0x34, 0x7C, 0x6C, 0x64, 0x44, 0x44, 0x00, 0x00, 0x00, 0x00, 
  0x00, 0x00, 0x00, 0x00, 0x00, 0x00, 0x00, 0x00, 0x38, 0x2C, 0x64, 0x66, 
  0x24, 0x38, 0x00, 0x00, 0x00, 0x00, 0x00, 0x00, 0x00, 0x00, 0x00, 0x00, 
  0x00, 0x00, 0x3C, 0x6C, 0x44, 0x44, 0x64, 0x3C, 0x04, 0x04, 0x04, 0x00, 
  0x00, 0x00, 0x00, 0x00, 0x00, 0x00, 0x00, 0x00, 0x78, 0x6C, 0x66, 0x26, 
  0x24, 0x3C, 0x20, 0x20, 0x20, 0x00, 0x00, 0x00, 0x00, 0x00, 0x00, 0x00, 
  0x00, 0x00, 0x34, 0x2C, 0x04, 0x04, 0x04, 0x04, 0x00, 0x00, 0x00, 0x00, 
  0x00, 0x00, 0x00, 0x00, 0x00, 0x00, 0x00, 0x30, 0x3C, 0x04, 0x1C, 0x30, 
  0x22, 0x1C, 0x00, 0x00, 0x00, 0x00, 0x00, 0x00, 0x00, 0x00, 0x00, 0x00, 
  0x08, 0x08, 0x3E, 0x18, 0x08, 0x18, 0x18, 0x08, 0x00, 0x00, 0x00, 0x00, 
  0x00, 0x00, 0x00, 0x00, 0x00, 0x00, 0x00, 0x00, 0x44, 0x64, 0x64, 0x64, 
  0x64, 0x7C, 0x00, 0x00, 0x00, 0x00, 0x00, 0x00, 0x00, 0x00, 0x00, 0x00, 
  0x00, 0x00, 0x66, 0x24, 0x24, 0x3C, 0x18, 0x18, 0x00, 0x00, 0x00, 0x00, 
  0x00, 0x00, 0x00, 0x00, 0x00, 0x00, 0x00, 0x00, 0x13, 0x5B, 0x5A, 0x5E, 
  0x76, 0x26, 0x00, 0x00, 0x00, 0x00, 0x00, 0x00, 0x00, 0x00, 0x00, 0x00, 
  0x00, 0x00, 0x62, 0x34, 0x1C, 0x1C, 0x36, 0x20, 0x00, 0x00, 0x00, 0x00, 
  0x00, 0x00, 0x00, 0x00, 0x00, 0x00, 0x00, 0x00, 0x42, 0x66, 0x24, 0x3C, 
  0x18, 0x18, 0x08, 0x0C, 0x04, 0x00, 0x00, 0x00, 0x00, 0x00, 0x00, 0x00, 
  0x00, 0x00, 0x7C, 0x60, 0x30, 0x10, 0x18, 0x7C, 0x00, 0x00, 0x00, 0x00, 
  0x00, 0x00, 0x00, 0x00, 0x00, 0x30, 0x18, 0x08, 0x08, 0x08, 0x0C, 0x0C, 
  0x08, 0x08, 0x18, 0x30, 0x00, 0x00, 0x00, 0x00, 0x00, 0x00, 0x08, 0x08, 
  0x08, 0x08, 0x08, 0x08, 0x08, 0x08, 0x08, 0x08, 0x08, 0x08, 0x00, 0x00, 
  0x00, 0x00, 0x00, 0x00, 0x00, 0x0C, 0x18, 0x10, 0x10, 0x10, 0x30, 0x30, 
  0x10, 0x10, 0x10, 0x0C, 0x00, 0x00, 0x00, 0x00, 0x00, 0x00, 0x00, 0x00, 
  0x00, 0x00, 0x00, 0x4E, 0x7A, 0x00, 0x00, 0x00, 0x00, 0x00, 0x00, 0x00, 
  };
